<svg xmlns="http://www.w3.org/2000/svg" version="1.1" xmlns:xlink="http://www.w3.org/1999/xlink" xmlns:svgjs="http://svgjs.dev/svgjs" width="1000" height="1000" viewBox="0 0 1000 1000"><rect width="1000" height="1000" fill="#ffffff"></rect><g transform="matrix(0.7,0,0,0.7,149.58479931665778,56.82122324159019)"><svg viewBox="0 0 258 327" data-background-color="#ffffff" preserveAspectRatio="xMidYMid meet" height="1267" width="1000" xmlns="http://www.w3.org/2000/svg" xmlns:xlink="http://www.w3.org/1999/xlink"><defs></defs><g id="tight-bounds" transform="matrix(1,0,0,1,0.15303110900327965,-0.10000000000002274)"><svg viewBox="0 0 257.69393778199344 327.2" height="327.2" width="257.69393778199344"><g><svg viewBox="0 0 395.52 502.2009641122528" height="327.2" width="257.69393778199344"><g transform="matrix(1,0,0,1,0,255.3438095212225)"><svg viewBox="0 0 395.52 246.85715459103025" height="246.85715459103025" width="395.52"><g><svg viewBox="0 0 395.52 246.85715459103025" height="246.85715459103025" width="395.52"><g><svg viewBox="0 0 395.52 174.2734924039989" height="174.2734924039989" width="395.52"><g transform="matrix(1,0,0,1,0,0)"><svg width="395.52" viewBox="-0.959797739982605 -24.4445858001709 202.53616333007812 89.24120330810547" height="174.2734924039989" data-palette-color="#ca3433"><path d="M48.352 1.772c-1.321 2.753-3.246 4.939-5.775 6.557-2.532 1.61-5.507 2.493-8.925 2.65-3.421 0.148-7.071-0.55-10.952-2.094v0l-7.711 10.708c-2.972 4.113-6.254 5.307-9.849 3.582v0c-1.977-0.949-3.519-2.406-4.624-4.371-1.111-1.968-1.595-4.389-1.451-7.262 0.147-2.88 1.06-6.069 2.738-9.567v0c3.155-6.576 6.894-11.647 11.216-15.215 4.322-3.568 8.822-5.635 13.501-6.2 4.672-0.568 9.163 0.182 13.472 2.249v0c3.047 1.462 5.375 3.237 6.984 5.325 1.608 2.088 2.514 4.308 2.716 6.661 0.211 2.349-0.235 4.675-1.34 6.977zM25.976 4.301c7.045 2.345 12.022 0.489 14.929-5.57v0c1.024-2.134 1.152-4.213 0.386-6.237-0.76-2.021-2.616-3.74-5.568-5.156v0c-3.336-1.601-6.748-1.94-10.237-1.019-3.486 0.916-6.799 2.92-9.939 6.013-3.143 3.099-5.865 7.046-8.166 11.842v0c-0.963 2.008-1.613 3.885-1.948 5.632-0.344 1.75-0.407 3.206-0.189 4.368 0.219 1.162 0.62 1.883 1.203 2.163v0c0.811 0.389 1.964-0.433 3.458-2.467v0l6.013-8.417c-1.17-0.798-1.681-1.143-1.534-1.035v0c-0.896-0.629-1.387-1.231-1.474-1.805-0.078-0.577 0.046-1.205 0.372-1.885v0c0.343-0.715 0.817-1.187 1.422-1.414 0.611-0.225 1.271-0.167 1.98 0.173v0c0.325 0.156 0.561 0.288 0.708 0.396v0c0.712 0.504 1.271 0.872 1.678 1.104v0c1.638-2.32 3.863-5.415 6.674-9.287v0c0.72-1.008 1.543-1.582 2.468-1.721 0.922-0.134 1.852 0.024 2.789 0.473v0c1.07 0.513 1.741 1.087 2.014 1.72 0.276 0.628 0.203 1.38-0.218 2.258v0c-0.248 0.517-0.48 0.923-0.696 1.219v0zM61.114 25.31c0.451 0.122 0.751 0.427 0.902 0.917 0.146 0.481 0.12 1.089-0.077 1.822v0c-0.374 1.384-0.992 2.37-1.856 2.959v0c-1.988 1.431-4.018 2.503-6.088 3.214-2.069 0.705-4.213 0.758-6.434 0.159v0c-3.051-0.824-4.942-2.822-5.673-5.996-0.725-3.172-0.492-6.962 0.698-11.371v0c1.142-4.229 2.99-8.902 5.546-14.019 2.555-5.117 5.423-9.332 8.603-12.645 3.185-3.304 6.251-4.558 9.198-3.762v0c1.667 0.45 2.768 1.576 3.304 3.377 0.537 1.795 0.417 4.135-0.362 7.019v0c-1.114 4.126-3.551 8.602-7.312 13.428-3.755 4.828-8.313 9.384-13.675 13.668v0c-0.146 1.487-0.021 2.611 0.373 3.374 0.39 0.754 1.036 1.253 1.937 1.496v0c1.422 0.384 2.781 0.312 4.077-0.214 1.294-0.521 3.041-1.544 5.241-3.07v0c0.55-0.376 1.083-0.495 1.598-0.356zM63.395-8.577c-0.792-0.214-2.082 0.985-3.871 3.595-1.781 2.606-3.63 5.939-5.548 10-1.912 4.062-3.432 8.044-4.56 11.944v0c3.562-3.396 6.62-6.934 9.174-10.616 2.554-3.681 4.286-7.205 5.194-10.571v0c0.712-2.639 0.583-4.089-0.389-4.352zM62.713 37.469c-2.21-0.323-3.854-1.382-4.932-3.177-1.079-1.788-1.429-3.982-1.048-6.581v0c0.416-2.843 1.466-5.438 3.151-7.786 1.684-2.348 3.735-4.136 6.151-5.366 2.409-1.224 4.841-1.657 7.295-1.298v0c0.785 0.115 1.288 0.34 1.508 0.676 0.226 0.343 0.371 0.92 0.434 1.731v0c0.767-0.036 1.559 0.006 2.377 0.125v0c1.741 0.255 2.521 1.006 2.338 2.253v0c-0.109 0.745-0.636 2.484-1.581 5.216v0c-1.416 3.97-2.241 6.753-2.475 8.349v0c-0.078 0.534-0.006 0.983 0.217 1.346 0.218 0.355 0.541 0.564 0.97 0.627v0c0.673 0.098 1.554-0.217 2.645-0.947 1.084-0.731 2.587-1.953 4.508-3.666v0c0.502-0.439 1.02-0.619 1.555-0.541v0c0.462 0.068 0.793 0.335 0.994 0.803 0.202 0.461 0.248 1.067 0.138 1.819v0c-0.208 1.418-0.705 2.471-1.493 3.157v0c-1.723 1.601-3.494 2.901-5.311 3.902-1.818 1.007-3.493 1.399-5.023 1.175v0c-1.168-0.171-2.184-0.727-3.05-1.669-0.859-0.948-1.434-2.15-1.726-3.608v0c-2.291 2.717-4.838 3.87-7.642 3.46zM65.421 32.368c0.778 0.114 1.592-0.242 2.44-1.068 0.848-0.819 1.541-1.968 2.081-3.445v0l3.415-9.526c-1.502-0.186-2.963 0.173-4.383 1.077-1.418 0.897-2.63 2.182-3.636 3.854-1.012 1.664-1.663 3.493-1.954 5.485v0c-0.161 1.102-0.057 1.952 0.313 2.552 0.364 0.599 0.938 0.956 1.724 1.071zM110.652 28.151c0.467 0.001 0.836 0.225 1.109 0.671 0.266 0.454 0.398 1.021 0.398 1.701v0c-0.001 0.827-0.129 1.473-0.383 1.939-0.247 0.466-0.641 0.879-1.182 1.239v0l-10.36 6.934c-1.378 7.438-3.173 13.285-5.386 17.542-2.22 4.25-5.036 6.373-8.45 6.368v0c-1.833-0.003-3.322-0.568-4.467-1.697-1.152-1.135-1.726-2.619-1.723-4.452v0c0.002-1.687 0.392-3.413 1.167-5.179 0.776-1.759 2.216-3.777 4.319-6.053 2.11-2.277 5.087-4.886 8.932-7.827v0l0.172-1.24c0.249-1.326 0.538-3.229 0.868-5.709v0c-0.724 2.586-1.733 4.551-3.029 5.896-1.295 1.345-2.663 2.016-4.103 2.014v0c-1.613-0.002-2.932-0.751-3.956-2.246-1.018-1.488-1.525-3.349-1.522-5.582v0c0.004-2.693 0.188-5.163 0.551-7.409 0.363-2.246 0.957-4.625 1.78-7.138v0c0.362-1.073 0.866-1.845 1.514-2.317 0.647-0.466 1.674-0.698 3.081-0.696v0c0.787 0.001 1.333 0.129 1.639 0.382 0.306 0.254 0.459 0.631 0.458 1.131v0c0 0.287-0.199 1.256-0.594 2.909v0c-0.362 1.333-0.654 2.536-0.875 3.609v0c-0.289 1.473-0.541 2.886-0.756 4.239-0.222 1.346-0.334 2.45-0.335 3.309v0c-0.002 1.367 0.377 2.051 1.137 2.052v0c0.54 0.001 1.214-0.538 2.022-1.617 0.808-1.079 1.671-2.711 2.587-4.896 0.923-2.192 1.817-4.887 2.682-8.086v0c0.288-1.073 0.729-1.846 1.324-2.318 0.594-0.466 1.484-0.698 2.671-0.696v0c0.827 0.001 1.403 0.112 1.729 0.332 0.32 0.214 0.479 0.574 0.479 1.081v0c-0.001 0.893-0.473 3.983-1.414 9.268v0l-1.413 8.668c2.77-2.076 5.466-3.975 8.089-5.698v0c0.467-0.286 0.881-0.429 1.24-0.428zM87.006 59.326c0.893 0.001 1.898-1.041 3.015-3.126 1.116-2.085 2.238-5.55 3.365-10.395v0c-2.77 2.329-4.777 4.453-6.019 6.371-1.243 1.925-1.865 3.604-1.868 5.037v0c-0.001 0.613 0.115 1.117 0.348 1.511 0.233 0.4 0.619 0.601 1.159 0.602zM137.878 23.301c0.46-0.076 0.858 0.078 1.192 0.462 0.339 0.376 0.571 0.939 0.695 1.689v0c0.234 1.414 0.077 2.569-0.47 3.463v0c-1.209 2.126-2.591 3.94-4.147 5.441-1.557 1.494-3.453 2.427-5.689 2.797v0c-1.874 0.31-3.509-0.112-4.903-1.266v0c-1.801 1.65-3.798 2.673-5.989 3.07v0c0.666 6.917 0.567 12.806-0.297 17.666-0.871 4.861-2.885 7.553-6.042 8.076v0c-1.914 0.317-3.446-0.139-4.595-1.367-1.15-1.229-1.927-3.066-2.332-5.513v0c-0.575-3.473-0.45-7.656 0.374-12.55 0.832-4.888 2.452-10.39 4.858-16.506v0c-0.857-5.176-1.486-8.768-1.886-10.777v0c-0.21-1.026 0.062-1.909 0.818-2.649 0.748-0.746 1.76-1.224 3.036-1.435v0c0.743-0.123 1.308-0.061 1.693 0.186 0.386 0.247 0.671 0.808 0.857 1.682v0c0.147 0.888 0.272 1.543 0.376 1.965v0c0.903-1.609 1.852-2.814 2.848-3.614 0.996-0.8 2.115-1.303 3.358-1.509v0c1.98-0.328 3.733 0.199 5.26 1.582 1.521 1.39 2.495 3.378 2.923 5.963v0c0.312 1.881 0.311 3.756-0.001 5.625-0.304 1.875-0.869 3.627-1.693 5.258v0c0.778 0.087 1.417 0.09 1.917 0.007v0c1.171-0.194 2.215-0.803 3.133-1.827 0.924-1.031 2.054-2.675 3.39-4.93v0c0.345-0.571 0.783-0.9 1.316-0.989zM117.979 33.814c1.235-0.502 2.299-1.398 3.193-2.688 0.893-1.297 1.522-2.823 1.887-4.58 0.366-1.75 0.399-3.529 0.1-5.337v0c-0.176-1.065-0.52-1.836-1.032-2.313-0.519-0.482-1.134-0.664-1.844-0.546v0c-1.276 0.211-2.595 1.815-3.957 4.811v0c0.225 1.564 0.587 3.852 1.086 6.865v0c0.27 1.631 0.459 2.894 0.567 3.788zM111.789 59.42c0.96-0.159 1.415-2.373 1.363-6.642-0.053-4.276-0.504-9.529-1.353-15.761v0c-0.939 3.798-1.585 7.385-1.938 10.761-0.354 3.37-0.349 6.153 0.015 8.35v0c0.188 1.138 0.467 1.984 0.836 2.538 0.363 0.562 0.723 0.813 1.077 0.754zM144.996 34.348c-2.145 0.623-4.08 0.342-5.806-0.843-1.724-1.179-2.953-3.03-3.686-5.553v0c-0.802-2.759-0.923-5.556-0.365-8.391 0.558-2.835 1.681-5.313 3.369-7.435 1.684-2.114 3.717-3.516 6.099-4.208v0c0.762-0.221 1.313-0.225 1.652-0.012 0.348 0.218 0.719 0.683 1.113 1.395v0c0.683-0.351 1.421-0.642 2.215-0.872v0c1.69-0.491 2.711-0.132 3.062 1.078v0c0.21 0.723 0.452 2.524 0.726 5.402v0c0.359 4.2 0.764 7.074 1.214 8.624v0c0.151 0.519 0.403 0.897 0.757 1.134 0.345 0.233 0.726 0.289 1.142 0.168v0c0.653-0.19 1.324-0.843 2.013-1.96 0.683-1.115 1.543-2.85 2.58-5.206v0c0.275-0.607 0.671-0.986 1.19-1.137v0c0.448-0.13 0.861-0.024 1.238 0.317 0.375 0.335 0.669 0.868 0.88 1.598v0c0.4 1.376 0.384 2.54-0.047 3.492v0c-0.903 2.172-1.974 4.09-3.212 5.754-1.236 1.671-2.597 2.723-4.083 3.154v0c-1.133 0.329-2.289 0.245-3.468-0.252-1.174-0.506-2.197-1.361-3.067-2.566v0c-0.956 3.423-2.795 5.529-5.516 6.319zM145.341 28.583c0.755-0.219 1.348-0.881 1.777-1.984 0.431-1.097 0.585-2.43 0.463-3.998v0l-0.847-10.084c-1.444 0.454-2.624 1.387-3.54 2.798-0.918 1.405-1.487 3.077-1.708 5.016-0.23 1.934-0.063 3.868 0.498 5.801v0c0.311 1.069 0.759 1.8 1.345 2.192 0.58 0.394 1.25 0.48 2.012 0.259zM178.408 9.441c0.43-0.181 0.855-0.125 1.276 0.169 0.411 0.29 0.764 0.785 1.059 1.485v0c0.556 1.321 0.675 2.479 0.355 3.474v0c-0.688 2.351-1.63 4.444-2.825 6.278-1.198 1.828-2.857 3.188-4.977 4.08v0c-2.913 1.226-5.633 0.812-8.161-1.241-2.522-2.056-4.668-5.189-6.44-9.398v0c-1.699-4.037-3.114-8.859-4.244-14.466-1.13-5.607-1.46-10.695-0.988-15.262 0.481-4.564 2.128-7.438 4.942-8.623v0c1.591-0.67 3.152-0.459 4.682 0.634 1.528 1.086 2.871 3.005 4.029 5.757v0c1.658 3.939 2.487 8.968 2.488 15.087 0.007 6.116-0.788 12.512-2.384 19.187v0c0.799 1.262 1.588 2.073 2.369 2.432 0.772 0.355 1.587 0.352 2.448-0.011v0c1.358-0.572 2.386-1.463 3.083-2.675 0.7-1.206 1.449-3.087 2.247-5.644v0c0.203-0.635 0.55-1.056 1.041-1.263zM159.376-18.688c-0.756 0.318-1.037 2.057-0.843 5.215 0.197 3.15 0.788 6.916 1.771 11.298 0.99 4.379 2.238 8.454 3.746 12.224v0c0.721-4.868 0.958-9.539 0.709-14.013-0.248-4.474-1.049-8.318-2.401-11.531v0c-1.06-2.519-2.054-3.584-2.982-3.193zM191.19 17.12c-1.62 0.928-3.073 1.261-4.36 0.999-1.289-0.253-2.203-0.847-2.739-1.784v0c-0.464-0.81-0.567-1.68-0.309-2.612 0.249-0.934 0.952-1.732 2.108-2.395v0c0.405-0.232 0.902-0.463 1.493-0.693 0.587-0.236 1.032-0.418 1.335-0.546v0c-0.496-0.799-1.115-1.463-1.855-1.992-0.741-0.528-1.55-0.983-2.429-1.363-0.882-0.386-1.687-0.705-2.415-0.956v0c0.088 2.393 0.007 4.471-0.242 6.235-0.253 1.758-0.629 3.503-1.129 5.233v0c-0.236 0.888-0.667 1.511-1.291 1.87v0c-0.497 0.285-1.005 0.338-1.523 0.158-0.518-0.18-0.929-0.536-1.234-1.068v0c-0.358-0.625-0.471-1.325-0.339-2.1v0l0.175-1.103c0.505-3.101 0.802-5.588 0.891-7.459v0c0.006-1.21-0.065-2.775-0.212-4.696-0.148-1.921-0.343-3.891-0.586-5.911v0c-0.195-1.709 0.641-3.099 2.51-4.168v0c0.874-0.5 1.529-0.772 1.965-0.815 0.431-0.039 0.744 0.112 0.94 0.453v0c0.109 0.191 0.216 0.525 0.321 1.003 0.11 0.475 0.172 0.977 0.183 1.508v0c0.082 1.444 0.346 2.556 0.794 3.337v0c0.265 0.463 0.723 0.88 1.374 1.253 0.645 0.376 1.554 0.788 2.727 1.238v0c1.744 0.737 3.137 1.419 4.178 2.044 1.042 0.625 1.876 1.484 2.502 2.577v0c0.179 0.312 0.397 0.767 0.655 1.365v0c1.195-1.468 2.087-4.069 2.676-7.802v0c0.124-0.655 0.421-1.117 0.889-1.385v0c0.405-0.232 0.831-0.226 1.278 0.017 0.449 0.234 0.863 0.681 1.24 1.341v0c0.676 1.18 0.931 2.317 0.767 3.41v0c-0.449 2.824-1.182 4.991-2.199 6.503-1.022 1.515-2.559 2.903-4.611 4.163v0c-0.634 1.777-1.81 3.157-3.528 4.141z" opacity="1" transform="matrix(1,0,0,1,0,0)" fill="#ca3433" class="undefined-text-0" data-fill-palette-color="primary" id="text-0"></path></svg></g></svg></g><g transform="matrix(1,0,0,1,118.31980799999998,228.83574001011152)"><svg viewBox="0 0 158.88038400000002 18.02141458091873" height="18.02141458091873" width="158.88038400000002"><g transform="matrix(1,0,0,1,0,0)"><svg width="158.88038400000002" viewBox="2.75 -37.5 424.4599914550781 48.150001525878906" height="18.02141458091873" data-palette-color="#ca3433"><path d="M17.7-35.05Q20.95-35.05 23.33-34.13 25.7-33.2 28.05-31.25L28.05-31.25 25.25-28.35Q23.4-29.85 21.7-30.5 20-31.15 17.7-31.15L17.7-31.15Q15.05-31.15 12.83-29.73 10.6-28.3 9.2-25.18 7.8-22.05 7.8-17.25L7.8-17.25Q7.8-10 10.18-6.65 12.55-3.3 17.2-3.3L17.2-3.3Q21-3.3 23.75-4.85L23.75-4.85 23.75-15.25 17.65-15.25 17.1-19.1 28.45-19.1 28.45-2.45Q23.1 0.6 17.2 0.6L17.2 0.6Q10.4 0.6 6.58-3.95 2.75-8.5 2.75-17.25L2.75-17.25Q2.75-22.85 4.78-26.88 6.8-30.9 10.23-32.98 13.65-35.05 17.7-35.05L17.7-35.05ZM56.2-13.95Q56.2-12.8 56.1-11.6L56.1-11.6 39.3-11.6Q39.6-7.25 41.5-5.2 43.4-3.15 46.4-3.15L46.4-3.15Q48.3-3.15 49.9-3.7 51.5-4.25 53.25-5.45L53.25-5.45 55.25-2.7Q51.05 0.6 46.05 0.6L46.05 0.6Q40.55 0.6 37.47-3 34.4-6.6 34.4-12.9L34.4-12.9Q34.4-17 35.72-20.18 37.05-23.35 39.52-25.15 42-26.95 45.35-26.95L45.35-26.95Q50.6-26.95 53.4-23.5 56.2-20.05 56.2-13.95L56.2-13.95ZM51.65-15L51.65-15.3Q51.65-19.2 50.1-21.25 48.55-23.3 45.45-23.3L45.45-23.3Q39.8-23.3 39.3-15L39.3-15 51.65-15ZM75.09-4.25L76.84-1.2Q74.25 0.6 70.95 0.6L70.95 0.6Q67.59 0.6 65.72-1.33 63.84-3.25 63.84-6.9L63.84-6.9 63.84-22.8 59.25-22.8 59.25-26.35 63.84-26.35 63.84-32.3 68.45-32.85 68.45-26.35 74.7-26.35 74.2-22.8 68.45-22.8 68.45-7.1Q68.45-5.05 69.17-4.13 69.9-3.2 71.59-3.2L71.59-3.2Q73.15-3.2 75.09-4.25L75.09-4.25ZM118.44 0L113.44 0 110.84-8.65 97.79-8.65 95.19 0 90.39 0 101.44-34.45 107.44-34.45 118.44 0ZM104.34-30.5L98.94-12.5 109.69-12.5 104.34-30.5ZM128.74 0.6Q126.19 0.6 124.71-0.93 123.24-2.45 123.24-5.2L123.24-5.2 123.24-36.95 127.84-37.5 127.84-5.3Q127.84-4.2 128.21-3.7 128.59-3.2 129.49-3.2L129.49-3.2Q130.44-3.2 131.19-3.5L131.19-3.5 132.39-0.3Q130.74 0.6 128.74 0.6L128.74 0.6ZM148.04-26.95Q153.59-26.95 156.66-23.25 159.74-19.55 159.74-13.2L159.74-13.2Q159.74-9.1 158.34-5.98 156.94-2.85 154.29-1.13 151.64 0.6 147.99 0.6L147.99 0.6Q142.44 0.6 139.34-3.1 136.24-6.8 136.24-13.15L136.24-13.15Q136.24-17.25 137.64-20.38 139.04-23.5 141.69-25.23 144.34-26.95 148.04-26.95L148.04-26.95ZM148.04-23.25Q141.19-23.25 141.19-13.15L141.19-13.15Q141.19-3.1 147.99-3.1L147.99-3.1Q154.79-3.1 154.79-13.2L154.79-13.2Q154.79-23.25 148.04-23.25L148.04-23.25ZM179.73-26.95Q183.33-26.95 185.36-24.8 187.38-22.65 187.38-18.9L187.38-18.9 187.38 0 182.78 0 182.78-18.25Q182.78-21.05 181.73-22.2 180.68-23.35 178.63-23.35L178.63-23.35Q176.53-23.35 174.93-22.15 173.33-20.95 171.93-18.7L171.93-18.7 171.93 0 167.33 0 167.33-26.35 171.28-26.35 171.68-22.45Q173.08-24.55 175.16-25.75 177.23-26.95 179.73-26.95L179.73-26.95ZM216.53-29.3L217.88-25.15Q216.38-24.65 214.58-24.5 212.78-24.35 210.18-24.35L210.18-24.35Q214.83-22.25 214.83-17.7L214.83-17.7Q214.83-13.75 212.13-11.25 209.43-8.75 204.78-8.75L204.78-8.75Q202.98-8.75 201.43-9.25L201.43-9.25Q200.83-8.85 200.48-8.18 200.13-7.5 200.13-6.8L200.13-6.8Q200.13-4.65 203.58-4.65L203.58-4.65 207.78-4.65Q210.43-4.65 212.48-3.7 214.53-2.75 215.66-1.1 216.78 0.55 216.78 2.65L216.78 2.65Q216.78 6.5 213.63 8.58 210.48 10.65 204.43 10.65L204.43 10.65Q200.18 10.65 197.71 9.78 195.23 8.9 194.18 7.15 193.13 5.4 193.13 2.65L193.13 2.65 197.28 2.65Q197.28 4.25 197.88 5.18 198.48 6.1 200.03 6.58 201.58 7.05 204.43 7.05L204.43 7.05Q208.58 7.05 210.36 6.03 212.13 5 212.13 2.95L212.13 2.95Q212.13 1.1 210.73 0.15 209.33-0.8 206.83-0.8L206.83-0.8 202.68-0.8Q199.33-0.8 197.61-2.23 195.88-3.65 195.88-5.8L195.88-5.8Q195.88-7.1 196.63-8.3 197.38-9.5 198.78-10.45L198.78-10.45Q196.48-11.65 195.41-13.43 194.33-15.2 194.33-17.75L194.33-17.75Q194.33-20.4 195.66-22.5 196.98-24.6 199.31-25.78 201.63-26.95 204.48-26.95L204.48-26.95Q207.58-26.9 209.68-27.18 211.78-27.45 213.16-27.93 214.53-28.4 216.53-29.3L216.53-29.3ZM204.48-23.65Q201.88-23.65 200.46-22.03 199.03-20.4 199.03-17.75L199.03-17.75Q199.03-15.05 200.48-13.43 201.93-11.8 204.58-11.8L204.58-11.8Q207.28-11.8 208.71-13.38 210.13-14.95 210.13-17.8L210.13-17.8Q210.13-23.65 204.48-23.65L204.48-23.65ZM259.48 0L254.48 0 251.88-8.65 238.83-8.65 236.23 0 231.43 0 242.48-34.45 248.48-34.45 259.48 0ZM245.38-30.5L239.98-12.5 250.73-12.5 245.38-30.5ZM276.92-26.95Q280.52-26.95 282.55-24.8 284.57-22.65 284.57-18.9L284.57-18.9 284.57 0 279.97 0 279.97-18.25Q279.97-21.05 278.92-22.2 277.87-23.35 275.82-23.35L275.82-23.35Q273.72-23.35 272.12-22.15 270.52-20.95 269.12-18.7L269.12-18.7 269.12 0 264.52 0 264.52-26.35 268.47-26.35 268.87-22.45Q270.27-24.55 272.35-25.75 274.42-26.95 276.92-26.95L276.92-26.95ZM309.62-37.5L314.22-36.95 314.22 0 310.17 0 309.72-3.65Q308.42-1.65 306.47-0.53 304.52 0.6 302.12 0.6L302.12 0.6Q297.42 0.6 294.8-3.1 292.17-6.8 292.17-13.05L292.17-13.05Q292.17-17.1 293.42-20.25 294.67-23.4 297.02-25.18 299.37-26.95 302.52-26.95L302.52-26.95Q306.57-26.95 309.62-23.7L309.62-23.7 309.62-37.5ZM303.12-3.05Q305.22-3.05 306.72-4.03 308.22-5 309.62-6.95L309.62-6.95 309.62-19.85Q308.32-21.55 306.85-22.43 305.37-23.3 303.52-23.3L303.52-23.3Q300.47-23.3 298.8-20.75 297.12-18.2 297.12-13.15L297.12-13.15Q297.12-8.05 298.67-5.55 300.22-3.05 303.12-3.05L303.12-3.05ZM346.27-34.45Q352.67-34.45 356.17-31.78 359.67-29.1 359.67-23.8L359.67-23.8Q359.67-18.15 356.02-15.4 352.37-12.65 346.32-12.65L346.32-12.65 341.97-12.65 341.97 0 337.22 0 337.22-34.45 346.27-34.45ZM346.12-16.4Q350.27-16.4 352.44-18 354.62-19.6 354.62-23.75L354.62-23.75Q354.62-27.45 352.44-29.1 350.27-30.75 346.22-30.75L346.22-30.75 341.97-30.75 341.97-16.4 346.12-16.4ZM371.26 0.6Q368.71 0.6 367.24-0.93 365.76-2.45 365.76-5.2L365.76-5.2 365.76-36.95 370.36-37.5 370.36-5.3Q370.36-4.2 370.74-3.7 371.11-3.2 372.01-3.2L372.01-3.2Q372.96-3.2 373.71-3.5L373.71-3.5 374.91-0.3Q373.26 0.6 371.26 0.6L371.26 0.6ZM398.41-6.15Q398.41-4.55 398.96-3.78 399.51-3 400.61-2.6L400.61-2.6 399.56 0.6Q397.51 0.35 396.26-0.55 395.01-1.45 394.41-3.35L394.41-3.35Q391.76 0.6 386.56 0.6L386.56 0.6Q382.66 0.6 380.41-1.6 378.16-3.8 378.16-7.35L378.16-7.35Q378.16-11.55 381.19-13.8 384.21-16.05 389.76-16.05L389.76-16.05 393.81-16.05 393.81-18Q393.81-20.8 392.46-22 391.11-23.2 388.31-23.2L388.31-23.2Q385.41-23.2 381.21-21.8L381.21-21.8 380.06-25.15Q384.96-26.95 389.16-26.95L389.16-26.95Q393.81-26.95 396.11-24.68 398.41-22.4 398.41-18.2L398.41-18.2 398.41-6.15ZM387.61-2.85Q391.56-2.85 393.81-6.95L393.81-6.95 393.81-13 390.36-13Q383.06-13 383.06-7.6L383.06-7.6Q383.06-5.25 384.21-4.05 385.36-2.85 387.61-2.85L387.61-2.85ZM427.21-26.35L418.41 0.15Q416.86 4.75 414.08 7.43 411.31 10.1 406.16 10.65L406.16 10.65 405.66 7.05Q408.26 6.6 409.81 5.75 411.36 4.9 412.28 3.58 413.21 2.25 414.01 0L414.01 0 412.46 0 403.61-26.35 408.51-26.35 415.56-3.35 422.46-26.35 427.21-26.35Z" opacity="1" transform="matrix(1,0,0,1,0,0)" fill="#ca3433" class="undefined-text-1" data-fill-palette-color="secondary" id="text-1"></path></svg></g></svg></g></svg></g></svg></g><g transform="matrix(1,0,0,1,75.54432,0)"><svg viewBox="0 0 244.43135999999998 244.43135999999998" height="244.43135999999998" width="244.43135999999998"><g><svg xmlns="http://www.w3.org/2000/svg" xmlns:xlink="http://www.w3.org/1999/xlink" version="1.1" x="0" y="0" viewBox="1 1 126 126" style="enable-background:new 0 0 128 128;" xml:space="preserve" height="244.43135999999998" width="244.43135999999998" class="icon-icon-0" data-fill-palette-color="accent" id="icon-0"><g fill="#ca3433" data-fill-palette-color="accent"><path d="M110.937 52.703c-7.691-4.44-16.653-5.62-25.231-3.321-8.267 2.215-15.218 7.411-19.687 14.668 9.403 17.409 3.288 39.323-13.954 49.278-5.771 3.331-12.084 4.915-18.313 4.915-0.632 0-1.264-0.028-1.894-0.062C41.271 123.777 52.257 127 64 127c31.814 0 58.104-23.586 62.378-54.223C124.154 64.602 118.837 57.265 110.937 52.703z" fill="#ca3433" data-fill-palette-color="accent"></path><path d="M64 1c-8.339 0-16.291 1.635-23.575 4.577C34.448 11.591 30.749 19.872 30.749 29c0 18.01 14.396 32.711 32.285 33.226 4.938-8.026 12.624-13.774 21.766-16.224 9.482-2.54 19.386-1.237 27.887 3.671 6.348 3.666 11.181 8.957 14.295 15.043C126.983 64.476 127 64.24 127 64 127 29.206 98.795 1 64 1z" fill="#ca3433" data-fill-palette-color="accent"></path><path d="M50.314 110.297c15.598-9.006 21.13-28.825 12.632-44.574C43.168 65.162 27.249 48.91 27.249 29c0-7.337 2.17-14.175 5.891-19.918C13.961 19.882 1 40.421 1 64c0 20.167 9.486 38.105 24.228 49.636C33.414 115.793 42.419 114.854 50.314 110.297z" fill="#ca3433" data-fill-palette-color="accent"></path></g></svg></g></svg></g><g></g></svg></g></svg><rect width="257.69393778199344" height="327.2" fill="none" stroke="none" visibility="hidden"></rect></g></svg></g></svg>